<svg xmlns="http://www.w3.org/2000/svg" viewBox="0 0 32 32" fill="none">
  <rect width="32" height="32" rx="8" fill="url(#g)"/>
  <path d="M22 14V12a2 2 0 0 0-2-2h-4a2 2 0 0 0-2 2v2M7 20h18a2 2 0 0 0 2-2V9a2 2 0 0 0-2-2H7a2 2 0 0 0-2 2v9a2 2 0 0 0 2 2ZM16 17h.01" stroke="#fff" stroke-width="2" stroke-linecap="round" stroke-linejoin="round"/>
  <defs>
    <linearGradient id="g" x1="0" y1="0" x2="32" y2="32" gradientUnits="userSpaceOnUse">
      <stop stop-color="#4f46e5"/>
      <stop offset="1" stop-color="#7c3aed"/>
    </linearGradient>
  </defs>
</svg>
